<svg version="1.1" id="_x31_7.03.2016" xmlns="http://www.w3.org/2000/svg" xmlns:xlink="http://www.w3.org/1999/xlink" x="0px" y="0px" viewBox="0 0 1456.4 619.4" style="enable-background:new 0 0 1456.4 619.4;" xml:space="preserve">
        <path class="st0" d="M1383.7,536.4h-103.5c-20.1,0-27.8,0.5-30.7-3.5c-1.4-1.9-1.5-4.3-0.4-7.4c4-11.5,8.6-12.7,36.9-12.7h162
            l8.4-30.9h-198.8c-48.8,0-63.4,17.2-67.8,33.5c-0.6,2.1-1.5,5.4-2.6,9.9c-2.5,10.1-1.8,17.9,2.6,23.5c7.4,9.5,20.5,16,55.9,16h103.5
            c20.1,0,27.8-0.5,30.7,3.5c1.4,1.9,1.5,4.3,0.4,7.4c-4,11.5-8.6,12.7-36.9,12.7h-173.5l-8.4,30.9h210.3c48.8,0,63.3-17.4,67.8-33.7
            c0.6-2.1,0.8-3,2.7-9.8c2.6-9.8,1.8-17.9-2.6-23.5C1432.2,542.9,1419.1,536.4,1383.7,536.4 M63.4,619.4l12-44h152.1l8.4-30.9H83.8
            l3.7-13.6c4.4-16.1,22-18.1,36.9-18.1h151.7l8.4-30.9H96.1c-48.8,0-63.3,17.3-67.7,33.6C25.8,524.8,0,619.4,0,619.4H63.4z
             M1106.2,481.9l-24.1,88.5c-4.4,16.1-22,18.1-37,18.1H980c-16.6,0-28.6-1.3-33.4-7.6c-2.2-2.9-2.7-6.6-1.5-11.1
            c1.8-6.5,23.9-87.9,23.9-87.9h-63.4l-27.8,102c-2.3,8.5-1.6,15,2.3,20.1c7.9,10.4,29.6,15.4,68,15.4c2.2,0,83.6,0,117.7,0
            c48.8,0,70.9-17.3,75.4-33.6c2.7-9.7,28.4-103.9,28.4-103.9H1106.2z M512.8,531.4l-10.6,38.9c-4.4,16.1-22,18.1-37,18.1H381
            c-16.6,0-28.6-1.3-33.4-7.6c-2.2-2.9-2.7-6.6-1.5-11.1l10.6-38.9c4.4-16.1,22-18.1,36.9-18.1h84.3c16.6,0,28.6,1.3,33.4,7.6
            C513.5,523.2,514,527,512.8,531.4 M577.8,497.3c-7.9-10.4-29.6-15.4-68-15.4c-2.2,0-110.3,0-144.5,0c-48.8,0-63.3,17.3-67.7,33.6
            c-5,18-18.7,68.5-18.7,68.5c-2.3,8.5-1.6,15,2.3,20.1c7.9,10.4,29.6,15.4,68,15.4c2.2,0,102.7,0,136.8,0c48.8,0,70.9-17.3,75.4-33.6
            c5-18,18.7-68.5,18.7-68.5C582.4,508.8,581.6,502.3,577.8,497.3 M835.8,619.4c0,0-129.5,0-171,0c-38.5,0-60.1-5-68-15.4
            c-3.8-5-4.6-11.6-2.3-20.1c0,0,13.8-50.5,18.7-68.5c4.5-16.2,19-33.6,67.7-33.6h192.3l-8.4,30.9H709.3c-14.9,0-32.5,2.1-36.9,18.1
            l-10.6,38.9c-1.2,4.5-0.7,8.2,1.5,11.1c4.8,6.3,16.8,7.6,33.4,7.6l147.5,0L835.8,619.4z"></path>
        <path class="st0" d="M402.4,311.8L374,411h141.6c17.7,0,31-9.4,35.9-26.4l20.9-72.8H402.4z"></path>
        <path class="st0" d="M467.3,311.8h105.1l-47.5-42.5h-97.4c0,0-1.1,0-1.1,1.1c0,0.3,0.1,0.5,0.3,0.7
            C427,271.3,467.3,311.8,467.3,311.8z"></path>
        <path class="st0" d="M647.8,155.9H478.5h-3c-17.7,0-31,9.4-35.9,26.4l-20.9,72.8h281.1h169.3h3c17.7,0,31-9.4,35.9-26.4l20.9-72.8
            H647.8z"></path>
        <path class="st0" d="M677.8,0c-54.1,0-95.1,6.5-126.2,17.3c-54.1,18.9-77.4,50.4-88.3,81.9h566.8L1058.7,0H677.8z"></path>
        <path class="st0" d="M472.5,115.5l178.8,40.4h277.6l-198.8-42.5H472.7c0,0-1.1,0-1.1,1.1C471.6,115.3,472.5,115.5,472.5,115.5z"></path>
    </svg>