<svg version="1.1" id="_x31_7.03.2016" xmlns="http://www.w3.org/2000/svg" xmlns:xlink="http://www.w3.org/1999/xlink" viewBox="0 0 141 25" focusable="false" role="presentation" class="css-1disevu"><svg width="100%" height="100%" fill="none" xmlns="http://www.w3.org/2000/svg"><g clip-path="url(#clip0)"><path d="M29.2039 18.1654C29.1736 18.1174 29.1614 18.0603 29.1694 18.0041C29.1774 17.948 29.205 17.8965 29.2475 17.8589L30.6068 16.6303C30.7165 16.5431 30.8261 16.5431 30.888 16.6303C31.5234 17.3332 32.5988 17.7703 33.6728 17.7703C35.0786 17.7703 35.9094 17.0028 35.9094 16.2128C35.9094 15.6209 35.5143 15.3131 34.5275 15.2287L33.431 15.1191C31.6106 14.9434 30.6673 13.9565 30.6673 12.5536C30.6673 10.0752 32.6635 8.75805 35.1657 8.75805C36.7008 8.75805 38.0602 9.34987 38.8066 10.0513C38.8436 10.0938 38.864 10.1483 38.864 10.2046C38.864 10.2609 38.8436 10.3153 38.8066 10.3578L37.6005 11.5414C37.5833 11.5645 37.5617 11.584 37.537 11.5987C37.5122 11.6134 37.4848 11.6231 37.4563 11.6271C37.4278 11.6312 37.3988 11.6295 37.371 11.6223C37.3431 11.6151 37.317 11.6024 37.294 11.585C36.5868 11.0495 35.7253 10.7571 34.8382 10.7514C33.6756 10.7514 32.9741 11.4093 32.9741 12.1333C32.9741 12.659 33.2553 12.9669 34.3799 13.0765L35.4539 13.1862C37.384 13.383 38.2387 14.3262 38.2387 15.7081C38.2387 18.1864 36.3972 19.8087 33.3706 19.8087C31.3308 19.8101 29.8829 18.954 29.2039 18.1654ZM40.2559 19.5711C40.2273 19.5742 40.1984 19.5705 40.1715 19.5602C40.1446 19.5499 40.1205 19.5334 40.1013 19.512C40.082 19.4905 40.0682 19.4648 40.0609 19.437C40.0535 19.4091 40.0529 19.3799 40.0591 19.3518L41.8571 9.22055C41.8621 9.16015 41.8898 9.1039 41.9347 9.06318C41.9796 9.02247 42.0383 9.00033 42.0989 9.00125H44.0107C44.0385 8.99841 44.0666 9.00257 44.0924 9.01337C44.1181 9.02417 44.1408 9.04125 44.1583 9.06306C44.1758 9.08487 44.1875 9.11071 44.1924 9.13822C44.1973 9.16573 44.1953 9.19403 44.1864 9.22055L42.3885 19.3518C42.366 19.484 42.3013 19.5711 42.1692 19.5711H40.2559ZM51.6819 19.5711C51.6136 19.5747 51.546 19.5549 51.4903 19.5151C51.4347 19.4752 51.3942 19.4177 51.3755 19.3518L49.8165 15.9935H49.794L47.0753 19.349C46.9431 19.5022 46.856 19.5683 46.7027 19.5683H44.5533C44.3776 19.5683 44.334 19.4587 44.4212 19.349L48.8071 14.0634L46.482 9.21633C46.4385 9.10668 46.482 8.99703 46.6577 8.99703H48.675C48.7439 8.98832 48.8138 9.00298 48.8735 9.03865C48.9331 9.07433 48.979 9.12897 49.004 9.19384L50.3366 12.1558H50.3591L52.7489 9.19524C52.7864 9.13573 52.8382 9.08654 52.8996 9.05217C52.961 9.0178 53.03 8.99932 53.1003 8.99844H55.2272C55.3805 8.99844 55.424 9.10809 55.3369 9.21773L51.3459 14.0648L53.8243 19.3504C53.8679 19.4601 53.8243 19.5697 53.6275 19.5697L51.6819 19.5711ZM59.1155 19.6147C57.3837 19.6147 56.7468 18.9793 57.0983 16.9438L58.4577 9.86016C58.4802 9.77301 58.4352 9.72802 58.348 9.72802H57.1194C57.0916 9.73087 57.0635 9.7267 57.0377 9.7159C57.012 9.7051 56.9893 9.68802 56.9718 9.66621C56.9543 9.6444 56.9426 9.61856 56.9377 9.59105C56.9328 9.56354 56.9348 9.53524 56.9437 9.50872L56.9661 9.39908C56.9722 9.33525 57.0032 9.27641 57.0525 9.23534C57.1017 9.19427 57.1652 9.1743 57.229 9.17978H58.4577C58.4765 9.18151 58.4954 9.17943 58.5134 9.17367C58.5314 9.16791 58.548 9.15858 58.5623 9.14625C58.5766 9.13392 58.5883 9.11883 58.5966 9.10189C58.605 9.08494 58.6098 9.06649 58.6109 9.04764L59.1366 5.97747C59.1416 5.91707 59.1694 5.86082 59.2143 5.82011C59.2591 5.77939 59.3178 5.75725 59.3784 5.75817H59.5541C59.5819 5.7557 59.6097 5.76011 59.6353 5.77102C59.6609 5.78193 59.6834 5.799 59.7008 5.82071C59.7182 5.84242 59.7299 5.86809 59.735 5.89544C59.7401 5.92279 59.7383 5.95097 59.7299 5.97747L59.2041 9.04764C59.1816 9.13479 59.2266 9.17978 59.3138 9.17978H61.3971C61.4248 9.1773 61.4527 9.18172 61.4783 9.19263C61.5039 9.20354 61.5264 9.22061 61.5437 9.24232C61.5611 9.26402 61.5729 9.2897 61.578 9.31705C61.583 9.3444 61.5813 9.37258 61.5728 9.39908L61.5503 9.50872C61.5443 9.57255 61.5132 9.63139 61.464 9.67246C61.4148 9.71353 61.3513 9.7335 61.2874 9.72802H59.2027C59.1839 9.72629 59.1649 9.72837 59.147 9.73413C59.129 9.73989 59.1123 9.74922 59.098 9.76155C59.0837 9.77389 59.0721 9.78897 59.0637 9.80592C59.0554 9.82286 59.0505 9.84131 59.0495 9.86016L57.7112 16.8566C57.3823 18.6546 57.7773 19.0721 59.2238 19.0721H59.5752C59.603 19.0692 59.6311 19.0734 59.6569 19.0842C59.6826 19.095 59.7053 19.1121 59.7228 19.1339C59.7403 19.1557 59.752 19.1815 59.7569 19.209C59.7618 19.2366 59.7598 19.2649 59.7509 19.2914L59.7285 19.401C59.7224 19.4648 59.6914 19.5237 59.6421 19.5648C59.5929 19.6058 59.5295 19.6258 59.4656 19.6203L59.1155 19.6147ZM69.5097 19.5711C69.4 19.5711 69.334 19.484 69.3565 19.3518L70.4965 13.1229C70.9351 10.5785 70.1676 9.50451 68.1714 9.50451C66.6138 9.50451 64.8595 10.7542 64.5094 12.7504L63.3469 19.3574C63.3419 19.4178 63.3141 19.4741 63.2693 19.5148C63.2244 19.5555 63.1657 19.5777 63.1051 19.5767H62.9083C62.7986 19.5767 62.7326 19.4896 62.7551 19.3574L65.2995 4.87817C65.3044 4.81777 65.3322 4.76152 65.3771 4.72081C65.422 4.68009 65.4807 4.65795 65.5412 4.65887H65.717C65.7447 4.6564 65.7726 4.66081 65.7981 4.67172C65.8237 4.68263 65.8462 4.6997 65.8636 4.72141C65.881 4.74312 65.8928 4.76879 65.8978 4.79614C65.9029 4.82349 65.9011 4.85167 65.8927 4.87817L64.8623 10.7992H64.8848C65.2478 10.2289 65.7501 9.76048 66.3443 9.43805C66.9385 9.11561 67.6051 8.94981 68.2811 8.95626C70.5401 8.95626 71.593 10.2945 71.1109 12.9697L69.9483 19.3518C69.9433 19.4122 69.9156 19.4685 69.8707 19.5092C69.8258 19.5499 69.7671 19.572 69.7065 19.5711H69.5097ZM74.2457 19.5711C74.2179 19.574 74.1898 19.5698 74.164 19.559C74.1383 19.5482 74.1156 19.5311 74.0981 19.5093C74.0807 19.4875 74.0689 19.4617 74.064 19.4341C74.0591 19.4066 74.0611 19.3783 74.07 19.3518L75.8243 9.39486C75.8293 9.33446 75.8571 9.27821 75.902 9.2375C75.9469 9.19678 76.0055 9.17464 76.0661 9.17556H76.2419C76.2697 9.17272 76.2977 9.17689 76.3235 9.18768C76.3493 9.19848 76.3719 9.21557 76.3894 9.23737C76.4069 9.25918 76.4186 9.28502 76.4235 9.31253C76.4285 9.34004 76.4264 9.36835 76.4176 9.39486L76.1547 10.9243H76.1772C76.4272 10.327 76.8521 9.81936 77.3961 9.46809C77.9401 9.11682 78.5776 8.93839 79.2249 8.95626C79.9109 8.95045 80.5777 9.18299 81.1114 9.61416C81.1775 9.68023 81.1775 9.78988 81.0889 9.89531L80.9792 10.0274C80.9368 10.0644 80.8823 10.0848 80.826 10.0848C80.7697 10.0848 80.7153 10.0644 80.6728 10.0274C80.2176 9.68543 79.6635 9.50088 79.0941 9.5017C77.1429 9.5017 76.0451 11.5414 75.695 13.5151L74.6562 19.349C74.6512 19.4094 74.6234 19.4657 74.5785 19.5064C74.5336 19.5471 74.475 19.5692 74.4144 19.5683L74.2457 19.5711ZM81.6962 16.4574C81.6962 14.8351 82.0251 12.9697 82.7055 11.5668C83.5166 9.87985 84.9421 8.95767 86.6754 8.95767C88.4958 8.95767 89.7455 10.0823 89.7455 12.2696C89.7399 12.9033 89.6769 13.5352 89.5572 14.1576C89.5504 14.2211 89.5192 14.2795 89.4701 14.3204C89.4211 14.3614 89.358 14.3816 89.2943 14.3769H82.624C82.5837 14.3739 82.5437 14.3857 82.5114 14.41C82.4791 14.4343 82.4566 14.4695 82.4483 14.509C82.326 15.1518 82.2746 15.8061 82.295 16.4602C82.295 18.1471 83.1286 19.245 84.9491 19.245C86.3548 19.245 87.4499 18.5646 88.2386 17.6874C88.3482 17.5778 88.4579 17.5553 88.545 17.6213L88.6772 17.731C88.6985 17.7512 88.7152 17.7759 88.7258 17.8033C88.7364 17.8308 88.7409 17.8602 88.7387 17.8896C88.7365 17.9189 88.7279 17.9474 88.7133 17.973C88.6988 17.9985 88.6788 18.0206 88.6547 18.0374C88.1987 18.5896 87.6256 19.0335 86.9769 19.3369C86.3282 19.6403 85.6202 19.7957 84.9041 19.7918C82.8208 19.7876 81.7018 18.5604 81.7018 16.4546L81.6962 16.4574ZM88.8894 13.8258C88.9082 13.8275 88.9272 13.8254 88.9452 13.8197C88.9632 13.8139 88.9798 13.8046 88.9941 13.7923C89.0084 13.7799 89.0201 13.7648 89.0284 13.7479C89.0368 13.731 89.0416 13.7125 89.0427 13.6937C89.125 13.2522 89.1692 12.8044 89.1748 12.3554C89.1748 10.4689 88.2751 9.50451 86.6304 9.50451C85.1614 9.50451 83.9594 10.2945 83.2313 11.7846C82.955 12.3952 82.7489 13.0352 82.617 13.6923C82.5945 13.7794 82.6394 13.8244 82.7266 13.8244L88.8894 13.8258ZM91.9821 16.4574C91.9821 14.8351 92.311 12.9697 92.9914 11.5668C93.8025 9.87985 95.228 8.95767 96.9613 8.95767C98.7817 8.95767 100.031 10.0823 100.031 12.2696C100.023 12.9031 99.9571 13.5345 99.8346 14.1561C99.8279 14.2197 99.7967 14.2781 99.7476 14.319C99.6985 14.36 99.6355 14.3802 99.5718 14.3754H92.9085C92.8682 14.3725 92.8282 14.3843 92.7959 14.4086C92.7636 14.4329 92.7411 14.4681 92.7328 14.5076C92.6105 15.1504 92.5591 15.8047 92.5795 16.4588C92.5795 18.1457 93.4131 19.2436 95.2336 19.2436C96.6394 19.2436 97.7344 18.5632 98.5231 17.686C98.6327 17.5764 98.7424 17.5539 98.8295 17.6199L98.9617 17.7296C98.983 17.7498 98.9997 17.7745 99.0103 17.8019C99.0209 17.8294 99.0254 17.8588 99.0232 17.8881C99.021 17.9175 99.0124 17.946 98.9978 17.9716C98.9833 17.9971 98.9633 18.0192 98.9392 18.036C98.4831 18.5881 97.91 19.0319 97.2613 19.3354C96.6127 19.6388 95.9047 19.7942 95.1886 19.7904C93.1053 19.7876 91.9877 18.5604 91.9877 16.4546L91.9821 16.4574ZM99.1753 13.8258C99.1941 13.8275 99.2131 13.8254 99.2311 13.8197C99.2491 13.8139 99.2657 13.8046 99.28 13.7923C99.2943 13.7799 99.306 13.7648 99.3143 13.7479C99.3227 13.731 99.3275 13.7125 99.3286 13.6937C99.4108 13.2522 99.455 12.8044 99.4607 12.3554C99.4607 10.4689 98.561 9.50451 96.9163 9.50451C95.4473 9.50451 94.2453 10.2945 93.5172 11.7846C93.2408 12.3952 93.0347 13.0352 92.9029 13.6923C92.8804 13.7794 92.9254 13.8244 93.0125 13.8244L99.1753 13.8258ZM101.565 19.5711C101.538 19.5717 101.511 19.566 101.486 19.5545C101.462 19.543 101.44 19.526 101.423 19.5048C101.406 19.4836 101.394 19.4588 101.388 19.4322C101.383 19.4057 101.383 19.3782 101.389 19.3518L101.652 17.8603C101.675 17.7812 101.712 17.7069 101.762 17.641L108.018 11.0649V11.0213H103.346C103.319 11.0238 103.291 11.0194 103.265 11.0085C103.239 10.9976 103.217 10.9805 103.2 10.9588C103.182 10.9371 103.17 10.9114 103.165 10.884C103.16 10.8567 103.162 10.8285 103.17 10.802L103.452 9.22336C103.457 9.16296 103.484 9.10671 103.529 9.06599C103.574 9.02528 103.633 9.00314 103.693 9.00406H111.023C111.051 9.00122 111.079 9.00538 111.105 9.01618C111.13 9.02698 111.153 9.04406 111.171 9.06587C111.188 9.08768 111.2 9.11352 111.205 9.14103C111.21 9.16854 111.208 9.19684 111.199 9.22336L110.918 10.802C110.904 10.8912 110.866 10.9749 110.808 11.0438L104.641 17.485V17.5314H109.509C109.537 17.5289 109.565 17.5333 109.59 17.5442C109.616 17.5551 109.638 17.5722 109.656 17.5939C109.673 17.6156 109.685 17.6413 109.69 17.6686C109.695 17.696 109.693 17.7242 109.685 17.7507L109.422 19.3518C109.417 19.4122 109.389 19.4685 109.344 19.5092C109.299 19.5499 109.241 19.572 109.18 19.5711H101.565ZM112.267 15.9752C112.267 14.7255 112.548 12.7729 113.122 11.6174C113.999 9.8194 115.491 8.76649 117.793 8.76649C119.902 8.76649 121.499 10.0598 121.499 12.4735C121.499 13.0442 121.433 13.6796 121.218 14.8197C121.208 14.8818 121.176 14.9383 121.127 14.9787C121.079 15.019 121.018 15.0404 120.955 15.039H114.685C114.666 15.0372 114.647 15.0393 114.629 15.0451C114.611 15.0508 114.595 15.0602 114.58 15.0725C114.566 15.0848 114.554 15.0999 114.546 15.1169C114.538 15.1338 114.533 15.1522 114.532 15.1711C114.496 15.3143 114.481 15.4621 114.488 15.6097C114.488 17.1884 115.212 17.7591 116.528 17.7591C117.537 17.7591 118.524 17.2544 119.16 16.6626C119.18 16.6391 119.205 16.6202 119.234 16.6073C119.262 16.5943 119.293 16.5876 119.324 16.5876C119.355 16.5876 119.386 16.5943 119.414 16.6073C119.443 16.6202 119.468 16.6391 119.488 16.6626L120.432 17.693C120.454 17.7174 120.471 17.7459 120.481 17.7769C120.492 17.8079 120.497 17.8407 120.495 17.8735C120.492 17.9062 120.484 17.9382 120.469 17.9676C120.455 17.997 120.434 18.0231 120.409 18.0445C119.264 19.1766 117.721 19.8145 116.11 19.8213C113.566 19.8101 112.271 18.3847 112.271 15.9724L112.267 15.9752ZM119.022 13.2776C119.062 13.2805 119.102 13.2687 119.134 13.2444C119.167 13.2201 119.189 13.1849 119.197 13.1454C119.239 12.9285 119.261 12.7083 119.264 12.4875C119.264 11.2814 118.628 10.7331 117.487 10.7331C117.013 10.7186 116.547 10.8444 116.145 11.0945C115.743 11.3446 115.424 11.708 115.228 12.1389C115.079 12.4613 114.968 12.8001 114.899 13.1482C114.876 13.2354 114.899 13.2804 114.987 13.2804L119.022 13.2776ZM123.122 19.5711C123.094 19.5742 123.065 19.5705 123.038 19.5602C123.011 19.5499 122.987 19.5334 122.968 19.512C122.948 19.4905 122.935 19.4648 122.927 19.437C122.92 19.4091 122.919 19.3799 122.926 19.3518L124.724 9.22055C124.729 9.16015 124.756 9.1039 124.801 9.06318C124.846 9.02247 124.905 9.00033 124.965 9.00125H126.873C126.901 8.99841 126.929 9.00257 126.955 9.01337C126.98 9.02417 127.003 9.04125 127.02 9.06306C127.038 9.08487 127.05 9.11071 127.055 9.13822C127.06 9.16573 127.057 9.19403 127.049 9.22055L126.852 10.1638H126.874C127.204 9.72485 127.631 9.36908 128.122 9.12497C128.614 8.88086 129.155 8.7552 129.704 8.75805C130.559 8.75805 131.283 9.06451 131.7 9.61275C131.737 9.65523 131.758 9.70965 131.758 9.76598C131.758 9.8223 131.737 9.87673 131.7 9.91921L130.407 11.2786C130.297 11.3882 130.21 11.4107 130.101 11.3221C129.705 10.9946 129.208 10.816 128.695 10.8175C127.335 10.8175 126.568 11.8704 126.26 13.6023L125.251 19.3476C125.228 19.4797 125.164 19.5669 125.031 19.5669L123.122 19.5711ZM131.589 16.1256C131.589 14.8323 131.984 12.6829 132.573 11.4979C133.517 9.56777 135.118 8.75665 137.245 8.75665C139.57 8.75665 140.995 10.1385 140.995 12.4411C140.995 13.7344 140.6 15.8838 140.011 17.0689C139.047 18.999 137.467 19.8101 135.34 19.8101C133.017 19.8101 131.589 18.4282 131.589 16.1256ZM137.862 16.3013C138.283 15.4466 138.629 13.5826 138.629 12.7869C138.629 11.5372 138.147 10.8189 136.918 10.8189C135.909 10.8189 135.187 11.3446 134.725 12.2879C134.304 13.1215 133.958 14.9855 133.958 15.7742C133.958 17.0239 134.44 17.7422 135.669 17.7422C136.679 17.7479 137.403 17.2221 137.865 16.3013H137.862Z" fill="#2C2E34"></path><path d="M42.448 6.63887C42.4202 6.64171 42.3921 6.63754 42.3663 6.62674C42.3406 6.61595 42.3179 6.59886 42.3004 6.57705C42.2829 6.55524 42.2712 6.5294 42.2663 6.50188C42.2614 6.47437 42.2634 6.44606 42.2723 6.41955L42.6237 4.5989C42.6287 4.53849 42.6565 4.48224 42.7014 4.44152C42.7463 4.4008 42.8049 4.37866 42.8655 4.37958H44.7734C44.8011 4.3771 44.829 4.38152 44.8545 4.39243C44.8801 4.40334 44.9026 4.42041 44.92 4.44212C44.9374 4.46383 44.9492 4.48951 44.9543 4.51686C44.9593 4.54421 44.9576 4.57239 44.9491 4.5989L44.6187 6.42377C44.6137 6.48417 44.586 6.54043 44.5411 6.58115C44.4962 6.62186 44.4375 6.64401 44.3769 6.64309L42.448 6.63887Z" fill="#2C2E34"></path><path d="M18.2063 1.85839C18.0618 1.62622 17.9327 1.38486 17.8197 1.13584C17.806 1.09661 17.7844 1.06057 17.7564 1.02989C17.7284 0.999209 17.6944 0.974518 17.6566 0.957306C17.6132 0.948717 17.5684 0.949152 17.5251 0.958583C17.4818 0.968014 17.4409 0.98624 17.405 1.01213C15.638 1.98632 14.1858 2.81852 12.8335 3.62964C10.968 4.75425 8.53187 6.25981 6.22643 8.00857C4.70119 9.16972 3.5808 10.2465 2.70361 11.3964C1.0392 13.5796 0.558431 16.0129 1.27537 18.6276C2.21722 22.0535 5.47717 24.4053 9.08996 24.4053C9.41884 24.405 9.74742 24.3853 10.074 24.3462L10.2539 24.3125C10.4142 24.283 10.6321 24.2422 10.8457 24.1902C12.0276 23.9035 13.1288 23.352 14.0662 22.5774C15.0036 21.8027 15.7527 20.8252 16.257 19.7185C16.7612 18.6119 17.0074 17.4052 16.9768 16.1895C16.9463 14.9738 16.6399 13.7809 16.0808 12.701C16.0673 12.664 16.0462 12.6302 16.0188 12.6019C15.9915 12.5735 15.9584 12.5513 15.9219 12.5365C15.884 12.5304 15.8452 12.5321 15.808 12.5415C15.7708 12.5509 15.7359 12.5679 15.7054 12.5913C15.4819 12.7319 15.2345 12.864 14.9688 12.9976C14.9343 13.0109 14.9027 13.031 14.8759 13.0565C14.8492 13.0821 14.8277 13.1127 14.8128 13.1466C14.7987 13.2186 14.8133 13.2933 14.8535 13.3547C15.4345 14.4787 15.6824 15.7452 15.5681 17.0053C15.4538 18.2654 14.982 19.4666 14.2083 20.4678C13.3622 21.557 12.1974 22.3552 10.8763 22.7514C9.55511 23.1475 8.14332 23.1218 6.83746 22.6779C5.53159 22.2339 4.39667 21.3938 3.59071 20.2745C2.78476 19.1552 2.34788 17.8125 2.34093 16.4333C2.33907 14.9367 2.83344 13.4817 3.74668 12.2961C4.76365 10.9751 5.97126 9.81248 7.32995 8.8464C8.91002 7.69509 10.5983 6.6478 12.2318 5.63566L12.4118 5.5246C14.124 4.46185 15.9782 3.38926 18.084 2.24498C18.1711 2.19718 18.233 2.14939 18.2527 2.07629C18.2602 2.03872 18.2599 2.00002 18.252 1.96255C18.244 1.92508 18.2284 1.88964 18.2063 1.85839Z" fill="#2C2E34"></path><path d="M17.5398 4.85012C17.5268 4.81358 17.5065 4.78005 17.4801 4.75155C17.4538 4.72304 17.422 4.70015 17.3866 4.68424C17.3474 4.67736 17.3072 4.67829 17.2684 4.68697C17.2295 4.69566 17.1928 4.71193 17.1603 4.73485C14.8464 6.00987 12.5733 7.36642 10.4056 8.76796C10.1113 8.95539 9.8152 9.14282 9.51718 9.33026L8.92676 9.707L9.13622 9.72668C9.63837 9.76757 10.1363 9.84985 10.6249 9.97269C10.6707 9.98559 10.718 9.99221 10.7655 9.99237C10.8598 9.99043 10.9519 9.96377 11.0326 9.91505C11.914 9.41039 12.801 8.88323 13.6585 8.36872C15.0376 7.54917 16.463 6.7029 17.8955 5.92974C17.9227 5.91853 17.9473 5.90191 17.9678 5.88088C17.9883 5.85986 18.0044 5.83487 18.015 5.80744C18.0212 5.77689 18.021 5.74539 18.0145 5.71491C18.0079 5.68443 17.9952 5.65563 17.977 5.63031C17.8168 5.37728 17.672 5.11862 17.5398 4.85012Z" fill="#2C2E34"></path><path d="M17.6868 9.31114C17.5462 9.06089 17.4056 8.80361 17.2735 8.54351C17.2606 8.51188 17.2416 8.48315 17.2174 8.459C17.1933 8.43486 17.1645 8.41579 17.1329 8.40292C17.0979 8.39639 17.0619 8.397 17.0271 8.40473C16.9923 8.41246 16.9594 8.42715 16.9304 8.44791C16.2964 8.81626 15.6483 9.1832 15.0212 9.5389L12.6621 10.8717L12.7535 10.9378C13.0803 11.1696 13.3866 11.4293 13.6687 11.7138C13.6837 11.7309 13.7021 11.7447 13.7227 11.7544C13.7432 11.764 13.7655 11.7694 13.7882 11.7701C13.8348 11.7666 13.8797 11.7516 13.919 11.7265L14.4448 11.4341C15.5114 10.8389 16.579 10.2447 17.6475 9.65137C17.6728 9.63981 17.6956 9.62327 17.7144 9.60274C17.7332 9.58222 17.7478 9.55811 17.7571 9.53187C17.7625 9.50309 17.7619 9.47352 17.7554 9.44498C17.7488 9.41644 17.7365 9.38955 17.7192 9.36597L17.6868 9.31114Z" fill="#2C2E34"></path></g><defs><clipPath id="clip0"><rect width="140.047" height="23.4592" fill="white" transform="translate(0.953125 0.945312)"></rect></clipPath></defs></svg></svg>