<svg width="26px" height="30px" viewBox="0 0 26 30" version="1.1" xmlns="http://www.w3.org/2000/svg" class="UIconShipping__Svg-ehdt2d-0 kVoOjs USPs__StyledIconShipping-sc-1hckl63-2 bNLTWS"><g stroke="none" fill="currentColor"><path d="M0.000203884532,7.19372791 L0.00270892109,7.14561858 C0.00402063372,7.12718724 0.00580216623,7.10893656 0.00803920234,7.09087567 C0.0102051233,7.07585951 0.0125964338,7.06010603 0.0153468242,7.04443037 C0.0471316641,6.85531966 0.129437548,6.68918117 0.244639019,6.55644845 C0.249574457,6.55126132 0.254479934,6.54569141 0.25945169,6.54017401 C0.309859981,6.48423016 0.366363975,6.43473363 0.427427497,6.39233813 C0.430245932,6.39026648 0.43339565,6.38810833 0.436560874,6.38596705 L0.466119959,6.36680701 C0.483251947,6.35607514 0.500701166,6.34588345 0.51844013,6.33624951 L0.534512474,6.32779503 L12.5675703,0.105572809 C12.8009024,-0.0150818299 13.0696446,-0.0323182068 13.3130938,0.0538636781 L13.4324297,0.105572809 L25.4654875,6.32779503 L25.4815599,6.33624951 C25.4992988,6.34588345 25.5167481,6.35607514 25.53388,6.36680701 L25.4654875,6.32779503 C25.5034387,6.34741938 25.5395968,6.36927652 25.5738873,6.39313554 C25.5901122,6.40454632 25.6063386,6.41659834 25.6222012,6.42915589 C25.63482,6.43904478 25.6469244,6.44913945 25.6587477,6.45949623 C25.8152217,6.59616061 25.9313015,6.78437854 25.9777485,7.00551245 C25.9903093,7.06715194 25.9979654,7.13000139 25.9997865,7.19339291 L26,7.22222222 L26,22.7777778 C26,23.1565498 25.7930721,23.502813 25.4654875,23.672205 L25.4654875,23.672205 L13.4324297,29.8944272 L13.4324297,29.8944272 C13.3916258,29.915407 13.356918,29.9304972 13.3212522,29.9434855 C13.307447,29.9482364 13.2935425,29.9529375 13.279565,29.9573036 C13.2544353,29.9654171 13.2284369,29.9723341 13.2020402,29.9781373 C13.190013,29.9805888 13.1783544,29.9829272 13.1666669,29.9850414 C13.1376877,29.990427 13.1076524,29.9943709 13.0772206,29.9968576 C13.0668607,29.9976587 13.0571746,29.998302 13.047483,29.9987944 C13.0323131,29.9995878 13.0162031,30 13,30 L12.951518,29.9987431 C12.9421597,29.9982576 12.9328068,29.9976314 12.9234621,29.9968645 L13,30 C12.9429578,30 12.8870692,29.9948918 12.8327386,29.9850936 C12.8216456,29.9829272 12.809987,29.9805888 12.7983635,29.9780263 C12.7715631,29.9723341 12.7455647,29.9654171 12.7200127,29.9574359 C12.6682707,29.9410089 12.617122,29.9200501 12.5675703,29.8944272 L12.6787478,29.9434855 C12.643082,29.9304972 12.6083742,29.915407 12.5747633,29.8983588 L12.5675703,29.8944272 L0.534512474,23.672205 C0.206927918,23.502813 0,23.1565498 0,22.7777778 L0,22.7777778 L0.000203884532,7.19372791 L0.000203884532,7.19372791 Z M1.9338843,8.84 L1.9338843,22.16 L12.033,27.383 L12.033,14.062 L1.9338843,8.84 Z M24.0652562,8.84 L13.966,14.062 L13.966,27.382 L24.0652562,22.16 L24.0652562,8.84 Z M19.015,5.229 L9.145,10.333 L12.9995702,12.326 L22.87,7.222 L19.015,5.229 Z M12.9995702,2.118 L3.129,7.222 L6.983,9.215 L16.853,4.111 L12.9995702,2.118 Z" id="box" fill="currentColor" fill-rule="nonzero"></path></g></svg>