<svg width="32px" height="28px" viewBox="0 0 32 28" version="1.1" xmlns="http://www.w3.org/2000/svg" class="USPs__StyledIconReturn-sc-1hckl63-1 cQaQy">
  <g stroke="none" fill="currentColor">
    <path d="M18.0676809,0 C25.7622883,0 32,6.2680135 32,14 C32,21.7319865 25.7622883,28 18.0676809,28 C13.5044371,28 9.31027446,25.7784252 6.71272104,22.1140483 C6.36932131,21.6296133 6.48175454,20.9571682 6.96384769,20.6121003 C7.44594084,20.2670324 8.11513503,20.3800118 8.45853475,20.8644469 C10.6580797,23.9673519 14.2051135,25.8461538 18.0676809,25.8461538 C24.5785025,25.8461538 29.8565663,20.5424501 29.8565663,14 C29.8565663,7.45754989 24.5785025,2.15384615 18.0676809,2.15384615 C12.1303211,2.15384615 7.21812424,6.56441301 6.3988696,12.3028647 L8.7425746,9.96000268 C9.10345122,9.59912606 9.67385176,9.5746688 10.0661719,9.88569172 L10.1533698,9.96342108 C10.5159995,10.3260508 10.5432212,10.8965765 10.2340959,11.2873941 L10.1567882,11.3742162 L5.9346579,15.5963465 C5.57378128,15.9572231 5.00338075,15.9816804 4.61106056,15.6706575 L4.52386274,15.5929281 L0.281222058,11.3502874 C-0.109302234,10.9597631 -0.110832706,10.3281286 0.277803654,9.93949226 C0.638680273,9.57861564 1.20908081,9.55415838 1.601401,9.8651813 L1.68859881,9.94291066 L4.21747431,12.471216 C4.97540308,5.45840834 10.8871838,0 18.0676809,0 Z M17.6417465,8 C18.1821241,8 18.6274949,8.38604019 18.6883623,8.88337887 L18.6954513,9 L18.6954513,15 L24.4908277,15 C25.0312053,15 25.4765761,15.3860402 25.5374435,15.8833789 L25.5445325,16 C25.5445325,16.5128358 25.1377601,16.9355072 24.613712,16.9932723 L24.4908277,17 L17.6417465,17 C17.1013689,17 16.6559981,16.6139598 16.5951308,16.1166211 L16.5880417,16 L16.5880417,9 C16.5880417,8.44771525 17.0598014,8 17.6417465,8 Z" id="return" fill-rule="nonzero"></path>
  </g>
</svg>